<svg width="1216" height="1216" viewBox="0 0 1216 1216" fill="none" xmlns="http://www.w3.org/2000/svg">
<path fill-rule="evenodd" clip-rule="evenodd" d="M712.598 41.2136C719.787 41.2136 726.168 44.572 730.265 49.8114L952.244 117.71C956.314 112.119 962.91 108.495 970.377 108.495C982.788 108.495 992.792 118.505 992.792 130.922C992.792 143.34 982.788 153.35 970.377 153.35L854.759 298.212C857 301.705 858.299 305.866 858.299 310.34C858.299 322.757 848.294 332.767 835.884 332.767C827.566 332.767 820.273 328.271 816.405 321.568H608.735C604.866 328.271 597.629 332.767 589.312 332.767C587.31 332.767 585.366 332.506 583.516 332.017L431.651 483.96C432.141 485.808 432.403 487.751 432.403 489.757C432.403 498.079 427.909 505.32 421.21 509.19V717.023C427.909 720.894 432.403 728.135 432.403 736.456C432.403 738.462 432.141 740.405 431.651 742.254L583.518 894.198C585.365 893.708 587.307 893.447 589.312 893.447C597.634 893.447 604.874 897.947 608.741 904.657H816.455C820.322 897.947 827.562 893.447 835.884 893.447C848.294 893.447 858.299 903.456 858.299 915.874C858.299 917.48 858.131 919.046 857.813 920.556L972.054 1061.71C983.677 1062.57 992.792 1072.22 992.792 1084.08C992.792 1096.49 982.788 1106.5 970.377 1106.5C962.915 1106.5 956.277 1102.89 952.197 1097.3L734.984 1163.74C734.382 1175.61 724.619 1185 712.598 1185C700.187 1185 690.056 1174.99 690.183 1162.57C690.183 1162.4 690.185 1162.22 690.189 1162.04L459.276 1100.14C455.24 1104.08 449.717 1106.5 443.611 1106.5C431.2 1106.5 421.069 1096.49 421.196 1084.08C421.196 1082.07 421.458 1080.12 421.95 1078.27L247.676 903.906C245.825 904.398 243.88 904.66 241.871 904.66C229.46 904.66 219.329 894.65 219.456 882.233C219.456 875.919 222.042 870.228 226.216 866.158L168.538 634.705C159.069 632.065 152.104 623.416 152.209 613.107C152.209 603.955 157.643 596.112 165.469 592.619L226.203 348.874C221.993 344.802 219.391 339.097 219.456 332.767C219.456 320.35 229.46 310.34 241.871 310.34C243.88 310.34 245.825 310.602 247.676 311.094L421.916 136.765C421.427 134.903 421.175 132.945 421.196 130.922C421.196 118.505 431.2 108.495 443.611 108.495C450.758 108.495 457.107 111.815 461.207 117.003L691.826 55.1728C695.155 46.9725 703.185 41.2136 712.598 41.2136ZM842.528 937.305C840.43 937.953 838.199 938.301 835.884 938.301C833.68 938.301 831.547 937.985 829.532 937.396L724.579 1143.46L950.1 1074.48C950.513 1073.61 950.982 1072.76 951.502 1071.95L842.528 937.305ZM576.707 934.462L463.696 1074.08C464.394 1075.49 464.949 1076.98 465.342 1078.54L699.518 1141.32L595.664 937.393C594.166 937.833 592.602 938.121 590.989 938.24L589.312 938.301C584.647 938.301 580.304 936.887 576.707 934.462ZM816.405 927.102H608.735C607.783 928.751 606.628 930.266 605.303 931.613L711.51 1140.18L712.598 1140.15C712.961 1140.15 713.323 1140.15 713.682 1140.17L819.877 931.646C818.534 930.29 817.364 928.764 816.405 927.102ZM421.811 764.154L442.602 1061.68L443.611 1061.65C448.287 1061.65 452.622 1063.07 456.208 1065.51L569.189 925.901C567.69 922.886 566.86 919.482 566.897 915.874C566.897 913.868 567.158 911.925 567.648 910.076L421.811 764.154ZM400.004 756.565L260.431 869.629C262.865 873.217 264.286 877.554 264.286 882.233C264.286 884.243 264.024 886.19 263.532 888.042L430.934 1055.54L410.2 758.872L409.988 758.883C406.406 758.883 403.014 758.05 400.004 756.565ZM191.729 627.626C191.27 628.168 190.786 628.687 190.278 629.182L247.956 860.637C249.314 861.017 250.619 861.522 251.859 862.137L391.387 749.083C388.939 745.49 387.525 741.145 387.573 736.456C387.573 734.945 387.721 733.469 388.004 732.042L191.729 627.626ZM392.849 504.299L196.608 608.692C196.891 610.119 197.039 611.595 197.039 613.107C197.039 614.618 196.891 616.095 196.608 617.521L392.882 721.937C394.544 719.977 396.537 718.309 398.777 717.017L398.783 509.216C396.529 507.926 394.521 506.259 392.849 504.299ZM255.996 350.202C253.661 352.096 250.935 353.529 247.956 354.363L187.973 595.07C189.356 596.095 190.617 597.276 191.729 598.587L387.97 494.183C387.694 492.753 387.557 491.273 387.573 489.757C387.573 483.748 389.916 478.302 393.741 474.282L255.996 350.202ZM431.775 158.609L263.532 326.958C264.024 328.81 264.286 330.757 264.286 332.767C264.286 335.727 263.717 338.55 262.683 341.134L403.735 468.209C405.719 467.636 407.816 467.33 409.988 467.33C410.059 467.33 410.131 467.33 410.203 467.331L431.775 158.609ZM456.208 149.493C452.622 151.928 448.287 153.35 443.611 153.35C443.536 153.35 443.461 153.349 443.386 153.348L421.811 462.048L567.614 316.171C567.263 314.832 567.035 313.444 566.943 312.017L566.897 310.34C566.897 304.103 569.421 298.474 573.505 294.416L456.208 149.493ZM713.673 86.0231L712.598 86.068C712.233 86.068 711.87 86.0593 711.51 86.0422L605.303 294.6C606.631 295.951 607.789 297.47 608.741 299.123H816.455C817.407 297.47 818.565 295.951 819.893 294.6L713.673 86.0231ZM694.957 77.5718L464.383 139.39C464.172 139.909 463.943 140.418 463.696 140.916L583.328 288.716C585.232 288.192 587.238 287.913 589.312 287.913C591.52 287.913 593.652 288.229 595.664 288.82L700.655 82.6583C698.474 81.2971 696.546 79.5738 694.957 77.5718ZM732.517 73.9611C730.676 77.5223 727.909 80.5219 724.533 82.6445L829.532 288.82C831.544 288.229 833.676 287.913 835.884 287.913L951.474 143.093C950.938 142.263 950.456 141.395 950.034 140.494L732.517 73.9611Z" fill="#AF1B3F"/>
</svg>
