<?xml version="1.0" standalone="no"?>
<!DOCTYPE svg PUBLIC "-//W3C//DTD SVG 20010904//EN"
 "http://www.w3.org/TR/2001/REC-SVG-20010904/DTD/svg10.dtd">
<svg version="1.0" xmlns="http://www.w3.org/2000/svg"
 width="700.000000pt" height="700.000000pt" viewBox="0 0 700.000000 700.000000"
 preserveAspectRatio="xMidYMid meet">
<metadata>
Created by potrace 1.11, written by Peter Selinger 2001-2013
</metadata>
<g transform="translate(0.000000,700.000000) scale(0.100000,-0.100000)"
fill="#000000" stroke="none">
<path d="M4045 6749 c-11 -6 -31 -24 -45 -39 -23 -26 -61 -38 -365 -120 -187
-50 -482 -130 -655 -176 l-315 -85 -38 22 c-94 52 -196 3 -198 -97 -1 -38 -17
-55 -503 -541 -471 -473 -503 -503 -536 -503 -41 0 -94 -29 -111 -62 -18 -33
-15 -99 5 -134 17 -29 16 -35 -157 -724 l-174 -695 -36 -36 c-33 -33 -37 -42
-37 -89 0 -45 4 -56 33 -84 17 -18 38 -35 45 -37 9 -3 72 -239 178 -666 l163
-662 -21 -47 c-17 -40 -19 -52 -9 -85 6 -21 25 -49 41 -63 30 -25 95 -44 108
-32 3 4 232 -219 509 -496 l503 -503 0 -43 c0 -90 105 -151 182 -105 l34 20
659 -177 c659 -176 660 -177 670 -206 18 -50 35 -73 65 -89 67 -35 148 -5 180
67 16 37 24 43 77 60 32 10 310 95 619 189 l561 171 38 -26 c87 -59 195 -2
195 104 0 58 -24 92 -86 123 -35 18 -100 93 -364 419 -241 299 -320 403 -320
423 0 36 -27 91 -54 108 -54 36 -127 27 -170 -22 l-19 -21 -599 0 c-363 0
-598 4 -598 9 0 19 -62 53 -102 56 -39 3 -56 18 -474 436 -364 364 -434 438
-434 462 0 37 -22 87 -49 111 l-21 19 0 593 c0 569 1 594 19 603 24 13 51 71
51 110 0 28 47 79 434 468 297 297 439 434 450 430 24 -9 87 13 111 39 l22 24
595 0 595 0 23 -25 c90 -96 258 6 212 129 -9 23 -9 33 2 45 7 9 156 195 330
414 174 219 324 400 334 403 80 24 112 64 112 138 0 85 -81 139 -164 111 -21
-7 -45 -20 -54 -28 -15 -13 -31 -10 -137 24 -66 20 -352 108 -635 195 -363
111 -523 164 -543 180 -31 26 -96 32 -132 13z m493 -273 c169 -51 444 -135
612 -186 168 -51 310 -97 317 -102 15 -12 -644 -842 -673 -846 -16 -2 -65 87
-320 588 l-301 591 21 24 c11 14 25 25 29 25 5 0 146 -42 315 -94z m-518 59
c10 -12 -42 -121 -288 -602 l-300 -588 -38 -3 -39 -2 -340 421 c-187 231 -341
424 -343 429 -1 4 77 29 175 55 98 26 392 105 653 176 261 70 482 128 491 128
9 1 22 -6 29 -14z m397 -635 c228 -448 299 -597 291 -607 -8 -11 -128 -13
-612 -11 -593 3 -601 3 -601 23 0 29 596 1196 608 1192 6 -2 147 -271 314
-597z m-1443 -189 c325 -403 326 -404 310 -429 -9 -13 -17 -42 -18 -64 -2 -37
-20 -56 -417 -454 -227 -228 -415 -410 -417 -406 -1 4 25 394 58 865 33 472
60 866 60 877 0 14 7 20 23 20 12 0 29 5 37 10 10 6 19 5 26 -3 6 -7 158 -194
338 -416z m-548 -492 c-67 -965 -62 -909 -88 -909 -12 0 -174 139 -422 363
l-402 362 4 45 c4 44 10 50 481 523 442 443 476 475 479 448 2 -16 -22 -390
-52 -832z m-584 -565 c473 -426 422 -372 403 -417 -8 -20 -15 -47 -15 -60 0
-21 -62 -57 -560 -321 -336 -178 -567 -296 -576 -292 -9 3 -13 13 -10 23 3 10
80 320 172 688 165 666 177 705 215 705 5 0 172 -147 371 -326z m439 -574 c18
-10 19 -28 19 -611 l0 -599 -23 -11 c-20 -9 -78 19 -473 229 -247 131 -500
265 -561 298 -98 51 -113 62 -113 84 0 22 13 32 93 75 503 269 1024 545 1030
545 5 0 17 -5 28 -10z m-565 -1019 l511 -272 6 -37 c4 -20 8 -44 9 -53 2 -11
-127 -122 -392 -337 -217 -177 -400 -322 -407 -322 -7 0 -17 17 -22 38 -47
176 -321 1285 -321 1298 0 12 10 10 53 -14 28 -16 282 -152 563 -301z m642
-435 c3 -4 121 -1643 122 -1691 0 -5 -216 206 -480 470 -441 440 -480 483
-480 513 0 18 -5 43 -11 54 -9 17 -6 24 27 52 21 17 200 163 399 324 326 265
363 292 389 287 16 -3 31 -7 34 -9z m907 -918 l0 -53 -319 -393 c-224 -277
-323 -392 -333 -388 -8 4 -25 9 -38 12 -19 5 -25 14 -29 47 -5 36 -116 1625
-116 1652 0 5 188 -178 418 -408 l417 -417 0 -52z m1448 -61 c6 -15 -594
-1199 -610 -1204 -13 -5 -616 1185 -609 1202 5 13 87 15 610 15 496 0 605 -2
609 -13z m-1324 -46 l45 -6 293 -575 c161 -316 293 -578 293 -582 0 -4 -39 4
-87 17 -49 13 -349 94 -667 179 -318 85 -583 159 -589 165 -13 13 -28 -6 328
435 222 276 314 383 325 379 8 -3 35 -9 59 -12z m1780 -391 c171 -211 308
-387 303 -391 -8 -7 -1294 -400 -1297 -397 -1 2 134 268 298 591 l300 588 43
-3 42 -3 311 -385z"/>
</g>
</svg>
