<svg height="1114" viewBox="0 0 947 1114" width="947" xmlns="http://www.w3.org/2000/svg"><path d="m509.667 36c8.142 0 15.369 3.80535 20.009 9.74199l251.401 76.93481c4.61-6.3356 12.08-10.4415 20.537-10.4415 14.056 0 25.386 11.342 25.386 25.4117 0 14.07-11.33 25.412-25.386 25.412l-130.943 164.141c2.539 3.958 4.009 8.672 4.009 13.741 0 14.07-11.33 25.412-25.386 25.412-9.42 0-17.68-5.094-22.061-12.689h-235.195c-4.382 7.595-12.578 12.689-21.997 12.689-2.268 0-4.469-.295-6.565-.85l-171.993 172.164c.555 2.094.85 4.295.85 6.568 0 9.429-5.089 17.634-12.676 22.02v235.49c7.587 4.386 12.676 12.59 12.676 22.02 0 2.273-.295 4.474-.85 6.568l171.996 172.166c2.092-.556 4.291-.852 6.562-.852 9.425 0 17.624 5.1 22.004 12.702h235.245c4.379-7.602 12.579-12.702 22.004-12.702 14.056 0 25.386 11.342 25.386 25.412 0 1.82-.19 3.595-.55 5.305l129.383 159.936c13.163.97 23.487 11.92 23.487 25.35 0 14.07-11.33 25.41-25.386 25.41-8.451 0-15.969-4.1-20.59-10.43l-246.004 75.28c-.681 13.45-11.739 24.09-25.353 24.09-14.055 0-25.529-11.34-25.386-25.41 0-.2.003-.4.007-.6l-261.519-70.14c-4.571 4.46-10.827 7.21-17.742 7.21-14.055 0-25.529-11.34-25.386-25.41 0-2.28.297-4.49.854-6.58l-197.373-197.572c-2.096.558-4.299.855-6.575.855-14.0552 0-25.5291-11.342-25.3857-25.412 0-7.154 2.9294-13.603 7.6569-18.214l-65.3234-262.254c-10.72468-2.992-18.61254-12.792-18.4948-24.473 0-10.369 6.1555-19.257 15.0191-23.215l68.7837-276.182c-4.7684-4.613-7.7146-11.077-7.6415-18.25 0-14.07 11.3305-25.412 25.3857-25.412 2.276 0 4.479.297 6.575.855l197.335-197.529c-.554-2.11-.839-4.329-.816-6.62 0-14.0697 11.331-25.4117 25.386-25.4117 8.095 0 15.286 3.7616 19.929 9.6396l261.187-70.0581c3.77-9.29149 12.863-15.8168 23.524-15.8168zm147.152 1015.34c-2.376.74-4.903 1.13-7.525 1.13-2.496 0-4.911-.36-7.194-1.02l-118.864 233.49 255.413-78.16c.468-1 1-1.96 1.588-2.87zm-301.054-3.22-127.991 158.2c.791 1.6 1.419 3.29 1.864 5.05l265.216 71.14-117.619-231.07c-1.697.5-3.469.83-5.295.96l-1.899.07c-5.284 0-10.202-1.6-14.276-4.35zm271.468-8.34h-235.195c-1.078 1.87-2.386 3.59-3.887 5.11l120.284 236.32 1.232-.03c.412 0 .821.01 1.228.03l120.271-236.28c-1.522-1.54-2.846-3.27-3.933-5.15zm-446.895-184.632 23.546 337.122 1.143-.03c5.296 0 10.206 1.61 14.267 4.37l127.956-158.19c-1.698-3.416-2.637-7.273-2.595-11.361 0-2.273.295-4.475.85-6.569zm-24.698-8.598-158.072 128.11c2.757 4.066 4.365 8.98 4.365 14.281 0 2.278-.297 4.484-.854 6.582l189.592 189.787-23.483-336.146-.241.012c-4.056 0-7.897-.944-11.307-2.626zm-235.8803-146.098c-.5198.613-1.0682 1.201-1.6432 1.762l65.3225 262.257c1.538.431 3.016 1.002 4.42 1.7l158.022-128.099c-2.772-4.071-4.374-8.995-4.32-14.307 0-1.713.168-3.386.489-5.002zm227.7773-139.74-222.2519 118.286c.3203 1.617.4882 3.289.4882 5.002s-.1679 3.385-.4882 5.002l222.2899 118.311c1.882-2.22 4.139-4.111 6.676-5.575l.007-235.454c-2.553-1.462-4.827-3.351-6.721-5.572zm-154.992-174.604c-2.645 2.147-5.732 3.77-9.106 4.715l-67.9335 272.739c1.5669 1.162 2.9946 2.5 4.2542 3.986l222.2523-118.298c-.313-1.621-.468-3.297-.451-5.015 0-6.809 2.654-12.979 6.986-17.534zm199.078-217.09-190.544 190.753c.557 2.098.854 4.304.854 6.582 0 3.354-.643 6.553-1.815 9.48l159.749 143.986c2.246-.648 4.621-.995 7.08-.995.082 0 .163 0 .244.001zm27.671-10.329c-4.061 2.76-8.971 4.37-14.267 4.37-.085 0-.17-.001-.255-.001l-24.434 349.781 165.129-165.291c-.398-1.517-.656-3.09-.761-4.706l-.051-1.901c0-7.066 2.858-13.444 7.483-18.043zm291.591-71.9163-1.218.0508c-.413 0-.824-.0098-1.232-.0292l-120.284 236.3127c1.504 1.53 2.815 3.252 3.894 5.124h235.245c1.079-1.872 2.39-3.594 3.894-5.124zm-21.197-9.576-261.136 70.0453c-.238.587-.498 1.164-.778 1.728l135.489 167.469c2.156-.593 4.429-.91 6.778-.91 2.5 0 4.914.359 7.194 1.029l118.906-233.5979c-2.469-1.5423-4.653-3.495-6.453-5.7634zm42.538-4.0912c-2.085 4.0351-5.218 7.4338-9.042 9.8389l118.916 233.6136c2.279-.67 4.694-1.029 7.194-1.029l130.912-164.091c-.607-.941-1.153-1.924-1.632-2.946z" fill="#11324b" fill-rule="evenodd"/></svg>