<svg width="3297" height="773" viewBox="0 0 3297 773" fill="none" xmlns="http://www.w3.org/2000/svg">
<path fill-rule="evenodd" clip-rule="evenodd" d="M382.831 7.50482C387.646 7.50482 391.92 9.75249 394.664 13.259L543.336 58.7013C546.062 54.9592 550.48 52.5339 555.481 52.5339C563.793 52.5339 570.493 59.2332 570.493 67.5437C570.493 75.8541 563.793 82.5534 555.481 82.5534L478.044 179.505C479.546 181.843 480.415 184.627 480.415 187.621C480.415 195.932 473.715 202.631 465.403 202.631C459.832 202.631 454.947 199.622 452.357 195.136H313.268C310.677 199.622 305.83 202.631 300.26 202.631C298.919 202.631 297.617 202.457 296.378 202.129L194.666 303.819C194.994 305.056 195.169 306.356 195.169 307.699C195.169 313.268 192.159 318.114 187.672 320.705V459.8C192.159 462.391 195.169 467.236 195.169 472.806C195.169 474.148 194.994 475.449 194.666 476.686L296.379 578.377C297.617 578.049 298.917 577.874 300.26 577.874C305.834 577.874 310.683 580.886 313.273 585.376H452.39C454.98 580.886 459.829 577.874 465.403 577.874C473.715 577.874 480.415 584.573 480.415 592.883C480.415 593.959 480.303 595.007 480.09 596.017L556.604 690.488C564.388 691.059 570.493 697.524 570.493 705.456C570.493 713.767 563.793 720.466 555.481 720.466C550.483 720.466 546.037 718.044 543.305 714.306L397.824 758.769C397.421 766.715 390.882 773 382.831 773C374.519 773 367.734 766.301 367.819 757.99C367.819 757.872 367.82 757.754 367.823 757.636L213.167 716.207C210.464 718.844 206.765 720.466 202.676 720.466C194.363 720.466 187.578 713.767 187.663 705.456C187.663 704.111 187.839 702.808 188.168 701.569L71.4469 584.874C70.2074 585.203 68.9042 585.379 67.5587 585.379C59.2466 585.379 52.4613 578.679 52.5461 570.369C52.5461 566.143 54.2784 562.334 57.0741 559.611L18.4437 404.707C12.1014 402.94 7.43672 397.152 7.50713 390.252C7.50713 384.128 11.1465 378.878 16.3882 376.54L57.065 213.411C54.2452 210.686 52.5029 206.868 52.5461 202.631C52.5461 194.321 59.2466 187.621 67.5587 187.621C68.9042 187.621 70.2074 187.797 71.4469 188.126L188.145 71.4536C187.818 70.2077 187.649 68.897 187.663 67.5437C187.663 59.2332 194.363 52.5339 202.676 52.5339C207.462 52.5339 211.715 54.7558 214.461 58.2277L368.919 16.8472C371.149 11.3591 376.527 7.50482 382.831 7.50482ZM469.853 607.227C468.448 607.66 466.953 607.893 465.403 607.893C463.927 607.893 462.499 607.682 461.149 607.288L390.855 745.202L541.9 699.035C542.177 698.448 542.491 697.882 542.839 697.34L469.853 607.227ZM291.818 605.324L216.127 698.768C216.595 699.71 216.967 700.708 217.23 701.75L374.071 743.769L304.514 607.286C303.511 607.58 302.463 607.773 301.383 607.852L300.26 607.893C297.136 607.893 294.227 606.947 291.818 605.324ZM452.357 600.398H313.268C312.631 601.501 311.857 602.515 310.97 603.417L382.103 743.003L382.831 742.981C383.075 742.981 383.317 742.986 383.557 742.998L454.682 603.439C453.782 602.532 452.999 601.51 452.357 600.398ZM188.075 491.343L202 690.469L202.676 690.447C205.807 690.447 208.711 691.398 211.113 693.028L286.782 599.594C285.778 597.577 285.223 595.298 285.247 592.883C285.247 591.541 285.422 590.24 285.751 589.004L188.075 491.343ZM173.469 486.264L79.9896 561.933C81.62 564.335 82.5713 567.238 82.5713 570.369C82.5713 571.714 82.3957 573.017 82.0662 574.256L194.185 686.356L180.298 487.808L180.156 487.815C177.757 487.815 175.486 487.258 173.469 486.264ZM33.976 399.97C33.6686 400.332 33.3443 400.679 33.0043 401.011L71.6342 555.915C72.5437 556.17 73.4179 556.507 74.2481 556.92L167.698 481.257C166.059 478.852 165.111 475.944 165.143 472.806C165.143 471.794 165.243 470.806 165.432 469.851L33.976 399.97ZM168.677 317.431L37.2436 387.298C37.433 388.253 37.5323 389.241 37.5323 390.252C37.5323 391.264 37.433 392.252 37.2436 393.207L168.7 463.088C169.813 461.777 171.148 460.66 172.648 459.796L172.652 320.722C171.142 319.859 169.797 318.743 168.677 317.431ZM77.0191 214.3C75.4551 215.568 73.6296 216.526 71.6342 217.085L31.4602 378.181C32.3868 378.867 33.2311 379.657 33.976 380.535L165.41 310.661C165.225 309.704 165.133 308.713 165.143 307.699C165.143 303.677 166.713 300.033 169.275 297.342L77.0191 214.3ZM194.748 86.0731L82.0662 198.744C82.3957 199.983 82.5713 201.286 82.5713 202.631C82.5713 204.612 82.1905 206.502 81.498 208.23L175.969 293.277C177.297 292.894 178.702 292.689 180.156 292.689C180.204 292.689 180.252 292.69 180.3 292.69L194.748 86.0731ZM211.113 79.9722C208.711 81.6022 205.807 82.5534 202.676 82.5534C202.625 82.5534 202.575 82.5531 202.525 82.5526L188.075 289.154L285.727 191.524C285.493 190.628 285.34 189.699 285.278 188.744L285.247 187.621C285.247 183.448 286.937 179.68 289.673 176.964L211.113 79.9722ZM383.552 37.4942L382.831 37.5242C382.587 37.5242 382.344 37.5185 382.103 37.507L310.97 177.087C311.859 177.991 312.635 179.008 313.273 180.114H452.39C453.028 179.008 453.803 177.991 454.693 177.087L383.552 37.4942ZM371.016 31.838L216.587 73.211C216.447 73.558 216.293 73.8984 216.127 74.2318L296.252 173.149C297.527 172.799 298.871 172.612 300.26 172.612C301.739 172.612 303.166 172.824 304.514 173.219L374.832 35.2422C373.372 34.3313 372.08 33.1779 371.016 31.838ZM396.172 29.4215C394.939 31.8049 393.086 33.8124 390.825 35.233L461.148 173.219C462.496 172.824 463.924 172.612 465.403 172.612L542.82 75.6893C542.461 75.1337 542.139 74.5527 541.856 73.9495L396.172 29.4215Z" fill="#001c37"/>
<path fill-rule="evenodd" clip-rule="evenodd" d="M3152.74 297.129H3138.58V509.615H3152.74V400.064H3282.84V509.615H3297V297.129H3282.84V387.293H3152.74V297.129ZM3092.05 321.901C3085.67 315.9 3060.77 294.205 3019.84 294.205C2957.9 294.205 2908.42 342.673 2908.42 403.757C2908.42 462.994 2956.04 513 3020.46 513C3043.65 513 3070.11 505.614 3092.05 486.535V468.072C3070.11 491.613 3041.47 500.229 3019.84 500.229C2976.42 500.229 2923.2 467.456 2923.2 404.372C2923.2 350.52 2964.44 306.822 3019.53 306.822C3047.23 306.822 3073.68 318.978 3092.05 340.211V321.901ZM2766.49 309.746H2801.19C2809.6 309.746 2825 310.977 2834.03 316.054C2842.43 320.516 2853.01 331.594 2853.01 352.982C2853.01 380.369 2834.65 396.371 2803.99 396.371H2766.49V309.746ZM2875.58 509.461L2805.39 409.142C2810.22 409.142 2820.49 408.834 2831.85 404.988C2858.62 396.063 2867.95 374.369 2867.95 353.443C2867.95 336.826 2862.51 319.285 2845.7 307.899C2831.54 298.36 2816.76 297.129 2800.26 297.129H2752.48V509.615H2766.65V409.296H2789.99L2859.55 509.615H2875.58V509.461ZM2599.66 426.99L2640.59 326.363L2680.9 426.99H2599.66ZM2714.67 509.461H2730.07L2640.9 290.667L2550.33 509.461H2565.74L2594.37 439.761H2685.88L2714.67 509.461ZM2528.55 297.129H2408.56V509.615H2528.55V496.844H2422.72V399.756H2509.72V386.985H2422.72V309.9H2528.55V297.129ZM2351.14 324.517C2340.25 304.514 2320.48 294.205 2299.01 294.205C2260.72 294.205 2243.92 322.516 2243.92 347.135C2243.92 355.443 2245.78 363.444 2250.61 371.291C2258.08 383.447 2268.66 389.14 2289.98 399.295C2307.72 407.911 2320.33 414.219 2326.4 417.758C2342.89 427.605 2347.4 439.761 2347.4 451.147C2347.4 479.15 2324.53 500.229 2295.58 500.229C2280.8 500.229 2264.93 494.229 2255.28 482.073C2252.01 478.227 2246.56 469.918 2243.76 461.763L2231.47 467.456C2233.33 472.841 2236.91 481.15 2245.32 490.69C2253.41 499.922 2267.57 513 2295.27 513C2332 513 2362.34 486.535 2362.34 450.839C2362.34 427.298 2348.8 416.066 2339.47 409.757C2328.57 402.064 2317.84 397.602 2296.67 387.447C2275.04 376.984 2259.01 369.291 2259.01 346.365C2259.01 324.978 2273.48 306.822 2299.01 306.822C2304.76 306.822 2327.95 307.438 2341.18 332.979L2351.14 324.517Z" fill="#001c37"/>
<path fill-rule="evenodd" clip-rule="evenodd" d="M1216.3 293.129L1366.35 476.52V295.947H1379.79V513L1229.74 328.238V506.07H1216.3V293.129ZM1983.66 293.129L2133.71 476.52V295.947H2147.14V513L1997.17 328.238V506.07H1983.66V293.129ZM747.731 293.129C773.302 293.129 799.18 303.182 817.993 320.47V338.672C801.637 318.947 772.994 305.543 746.886 305.543C694.055 305.543 650.515 350.705 650.515 402.265C650.515 426.788 661.189 449.94 678.85 467.228C696.512 483.983 721.776 496.245 746.809 496.245C771.305 496.245 802.174 483.146 817.916 464.182V482.613C798.028 499.063 773.532 508.811 747.423 508.811C688.449 508.811 637 460.07 637 401.275C637 341.642 687.604 293.129 747.731 293.129ZM1751.06 295.947V506.07H1737.55V295.947H1751.06ZM1595.1 295.947V493.503H1707.52V506.07H1581.67V295.947H1595.1ZM1545.96 295.947V308.513H1436.07V384.825H1527.07V397.391H1436.07V493.503H1551.56V506.07H1422.56V295.947H1545.96ZM1861.18 288.94L1949.72 505.993H1935.97L1907.56 436.917H1814.49L1786.16 505.993H1772.41L1861.18 288.94ZM1102.04 295.871C1119.16 295.871 1135.98 296.175 1150.34 306.457C1165.54 317.043 1171.69 333.798 1171.69 351.619C1171.69 388.099 1146.11 407.063 1111.02 406.53L1180.44 505.993H1165.01L1095.89 406.53H1064.87V505.993H1051.36V295.871H1102.04ZM930.336 288.94L1018.8 505.993H1005.05L976.717 436.917H883.725L855.313 505.993H841.567L930.336 288.94ZM1861.26 322.983L1819.64 424.427H1902.49L1861.26 322.983ZM930.413 322.983L888.793 424.427H971.649L930.413 322.983ZM1135.83 313.235C1124.61 307.98 1110.25 308.513 1097.89 308.513H1064.87V394.04H1106.34C1119.55 394.04 1132.75 393.507 1143.43 384.291C1153.56 376.219 1158.32 363.728 1158.32 351.162C1158.32 335.55 1151.03 319.937 1135.83 313.235ZM1744.31 260C1752.37 260 1758.9 266.474 1758.9 274.47C1758.9 282.467 1752.37 288.94 1744.31 288.94C1736.24 288.94 1729.72 282.467 1729.72 274.47C1729.72 266.474 1736.24 260 1744.31 260Z" fill="#AF1B3F"/>
</svg>
