<svg width="2660" height="1208" viewBox="0 0 2660 1208" fill="none" xmlns="http://www.w3.org/2000/svg">
<path fill-rule="evenodd" clip-rule="evenodd" d="M1402.08 94.7767C1405.78 94.7767 1409.06 96.5068 1411.17 99.2058L1525.37 134.184C1527.47 131.304 1530.86 129.437 1534.7 129.437C1541.09 129.437 1546.23 134.593 1546.23 140.99C1546.23 147.387 1541.09 152.544 1534.7 152.544L1475.22 227.17C1476.37 228.969 1477.04 231.113 1477.04 233.417C1477.04 239.814 1471.89 244.971 1465.51 244.971C1461.23 244.971 1457.48 242.655 1455.49 239.202H1348.64C1346.65 242.655 1342.93 244.971 1338.65 244.971C1337.62 244.971 1336.62 244.837 1335.67 244.584L1257.54 322.858C1257.79 323.81 1257.92 324.811 1257.92 325.845C1257.92 330.132 1255.61 333.862 1252.16 335.856V442.921C1255.61 444.915 1257.92 448.645 1257.92 452.932C1257.92 453.965 1257.79 454.966 1257.54 455.918L1335.67 534.193C1336.62 533.94 1337.62 533.806 1338.65 533.806C1342.93 533.806 1346.66 536.124 1348.65 539.581H1455.51C1457.5 536.124 1461.23 533.806 1465.51 533.806C1471.89 533.806 1477.04 538.962 1477.04 545.359C1477.04 546.187 1476.95 546.994 1476.79 547.771L1535.56 620.488C1541.54 620.928 1546.23 625.904 1546.23 632.01C1546.23 638.406 1541.09 643.563 1534.7 643.563C1530.86 643.563 1527.45 641.699 1525.35 638.822L1413.6 673.046C1413.29 679.162 1408.26 684 1402.08 684C1395.69 684 1390.48 678.843 1390.55 672.447C1390.55 672.355 1390.55 672.265 1390.55 672.174L1271.75 640.285C1269.67 642.315 1266.83 643.563 1263.69 643.563C1257.3 643.563 1252.09 638.406 1252.16 632.01C1252.16 630.974 1252.29 629.971 1252.54 629.017L1162.88 539.194C1161.93 539.447 1160.93 539.582 1159.9 539.582C1153.51 539.582 1148.3 534.426 1148.36 528.029C1148.36 524.777 1149.69 521.845 1151.84 519.748L1122.17 400.515C1117.3 399.155 1113.71 394.699 1113.77 389.388C1113.77 384.674 1116.56 380.633 1120.59 378.834L1151.84 253.268C1149.67 251.171 1148.33 248.232 1148.36 244.971C1148.36 238.574 1153.51 233.417 1159.9 233.417C1160.93 233.417 1161.93 233.553 1162.88 233.806L1252.53 144C1252.28 143.041 1252.15 142.032 1252.16 140.99C1252.16 134.593 1257.3 129.437 1263.69 129.437C1267.37 129.437 1270.63 131.147 1272.74 133.819L1391.39 101.968C1393.1 97.7434 1397.24 94.7767 1402.08 94.7767ZM1468.93 556.4C1467.85 556.733 1466.7 556.913 1465.51 556.913C1464.37 556.913 1463.28 556.75 1462.24 556.447L1408.24 662.603L1524.27 627.067C1524.48 626.615 1524.72 626.179 1524.99 625.762L1468.93 556.4ZM1332.16 554.935L1274.02 626.862C1274.38 627.586 1274.67 628.354 1274.87 629.156L1395.35 661.5L1341.92 556.445C1341.15 556.672 1340.34 556.82 1339.51 556.881L1338.65 556.913C1336.25 556.913 1334.02 556.184 1332.16 554.935ZM1455.49 551.143H1348.64C1348.15 551.993 1347.56 552.773 1346.88 553.467L1401.52 660.91L1402.08 660.893C1402.27 660.893 1402.45 660.898 1402.64 660.906L1457.27 553.484C1456.58 552.786 1455.98 552 1455.49 551.143ZM1252.47 467.2L1263.17 620.474L1263.69 620.456C1266.09 620.456 1268.32 621.188 1270.17 622.443L1328.3 550.525C1327.52 548.972 1327.1 547.218 1327.12 545.359C1327.12 544.326 1327.25 543.325 1327.5 542.373L1252.47 467.2ZM1241.25 463.291L1169.45 521.536C1170.7 523.385 1171.43 525.619 1171.43 528.029C1171.43 529.065 1171.29 530.067 1171.04 531.021L1257.17 617.308L1246.5 464.48L1246.39 464.485C1244.55 464.485 1242.8 464.056 1241.25 463.291ZM1134.1 396.868C1133.86 397.147 1133.61 397.414 1133.35 397.669L1163.03 516.904C1163.73 517.1 1164.4 517.36 1165.03 517.677L1236.82 459.437C1235.56 457.586 1234.83 455.347 1234.86 452.932C1234.86 452.153 1234.93 451.393 1235.08 450.658L1134.1 396.868ZM1237.57 333.336L1136.61 387.114C1136.75 387.849 1136.83 388.61 1136.83 389.388C1136.83 390.167 1136.75 390.927 1136.61 391.662L1237.59 445.452C1238.44 444.443 1239.47 443.583 1240.62 442.918L1240.63 335.869C1239.47 335.204 1238.43 334.345 1237.57 333.336ZM1167.16 253.953C1165.96 254.928 1164.56 255.666 1163.03 256.096L1132.17 380.096C1132.88 380.624 1133.53 381.233 1134.1 381.908L1235.06 328.124C1234.92 327.388 1234.85 326.625 1234.86 325.845C1234.86 322.749 1236.06 319.944 1238.03 317.873L1167.16 253.953ZM1257.6 155.253L1171.04 241.979C1171.29 242.932 1171.43 243.935 1171.43 244.971C1171.43 246.496 1171.14 247.95 1170.6 249.281L1243.17 314.744C1244.19 314.449 1245.27 314.291 1246.39 314.291C1246.43 314.291 1246.46 314.291 1246.5 314.292L1257.6 155.253ZM1270.17 150.557C1268.32 151.812 1266.09 152.544 1263.69 152.544C1263.65 152.544 1263.61 152.543 1263.57 152.543L1252.47 311.57L1327.49 236.421C1327.31 235.732 1327.19 235.016 1327.14 234.282L1327.12 233.417C1327.12 230.205 1328.42 227.305 1330.52 225.214L1270.17 150.557ZM1402.63 117.86L1402.08 117.883C1401.89 117.883 1401.7 117.879 1401.52 117.87L1346.88 225.309C1347.56 226.005 1348.16 226.787 1348.65 227.639H1455.51C1456 226.787 1456.6 226.005 1457.28 225.309L1402.63 117.86ZM1393 113.507L1274.38 145.353C1274.27 145.62 1274.15 145.882 1274.02 146.138L1335.57 222.278C1336.55 222.008 1337.58 221.864 1338.65 221.864C1339.79 221.864 1340.88 222.027 1341.92 222.332L1395.93 116.127C1394.81 115.426 1393.82 114.538 1393 113.507ZM1412.33 111.647C1411.38 113.481 1409.96 115.026 1408.22 116.12L1462.24 222.332C1463.27 222.027 1464.37 221.864 1465.51 221.864L1524.98 147.26C1524.7 146.833 1524.45 146.385 1524.24 145.921L1412.33 111.647Z" fill="white"/>
<path fill-rule="evenodd" clip-rule="evenodd" d="M2515.74 912.129H2501.58V1124.61H2515.74V1015.06H2645.84V1124.61H2660V912.129H2645.84V1002.29H2515.74V912.129ZM2455.05 936.901C2448.67 930.9 2423.77 909.205 2382.84 909.205C2320.9 909.205 2271.42 957.673 2271.42 1018.76C2271.42 1077.99 2319.04 1128 2383.46 1128C2406.65 1128 2433.11 1120.61 2455.05 1101.54V1083.07C2433.11 1106.61 2404.47 1115.23 2382.84 1115.23C2339.42 1115.23 2286.2 1082.46 2286.2 1019.37C2286.2 965.52 2327.44 921.822 2382.53 921.822C2410.23 921.822 2436.68 933.978 2455.05 955.211V936.901ZM2129.49 924.746H2164.19C2172.6 924.746 2188 925.977 2197.03 931.054C2205.43 935.516 2216.01 946.594 2216.01 967.982C2216.01 995.369 2197.65 1011.37 2166.99 1011.37H2129.49V924.746ZM2238.58 1124.46L2168.39 1024.14C2173.22 1024.14 2183.49 1023.83 2194.85 1019.99C2221.62 1011.06 2230.95 989.369 2230.95 968.443C2230.95 951.826 2225.51 934.285 2208.7 922.899C2194.54 913.36 2179.76 912.129 2163.26 912.129H2115.48V1124.61H2129.65V1024.3H2152.99L2222.55 1124.61H2238.58V1124.46ZM1962.66 1041.99L2003.59 941.363L2043.9 1041.99H1962.66ZM2077.67 1124.46H2093.07L2003.9 905.667L1913.33 1124.46H1928.74L1957.37 1054.76H2048.88L2077.67 1124.46ZM1891.55 912.129H1771.56V1124.61H1891.55V1111.84H1785.72V1014.76H1872.72V1001.99H1785.72V924.9H1891.55V912.129ZM1714.14 939.517C1703.25 919.514 1683.48 909.205 1662.01 909.205C1623.72 909.205 1606.92 937.516 1606.92 962.135C1606.92 970.443 1608.78 978.444 1613.61 986.291C1621.08 998.447 1631.66 1004.14 1652.98 1014.29C1670.72 1022.91 1683.33 1029.22 1689.4 1032.76C1705.89 1042.61 1710.4 1054.76 1710.4 1066.15C1710.4 1094.15 1687.53 1115.23 1658.58 1115.23C1643.8 1115.23 1627.93 1109.23 1618.28 1097.07C1615.01 1093.23 1609.56 1084.92 1606.76 1076.76L1594.47 1082.46C1596.33 1087.84 1599.91 1096.15 1608.32 1105.69C1616.41 1114.92 1630.57 1128 1658.27 1128C1695 1128 1725.34 1101.54 1725.34 1065.84C1725.34 1042.3 1711.8 1031.07 1702.47 1024.76C1691.57 1017.06 1680.84 1012.6 1659.67 1002.45C1638.04 991.984 1622.01 984.291 1622.01 961.365C1622.01 939.978 1636.48 921.822 1662.01 921.822C1667.76 921.822 1690.95 922.438 1704.18 947.979L1714.14 939.517Z" fill="white"/>
<path fill-rule="evenodd" clip-rule="evenodd" d="M579.301 908.129L729.348 1091.52V910.947H742.786V1128L592.739 943.238V1121.07H579.301V908.129ZM1346.66 908.129L1496.71 1091.52V910.947H1510.14V1128L1360.17 943.238V1121.07H1346.66V908.129ZM110.731 908.129C136.302 908.129 162.18 918.182 180.993 935.47V953.672C164.637 933.947 135.994 920.543 109.886 920.543C57.0547 920.543 13.515 965.705 13.515 1017.26C13.515 1041.79 24.1887 1064.94 41.8503 1082.23C59.5119 1098.98 84.7757 1111.25 109.809 1111.25C134.305 1111.25 165.174 1098.15 180.916 1079.18V1097.61C161.028 1114.06 136.532 1123.81 110.423 1123.81C51.449 1123.81 0 1075.07 0 1016.27C0 956.642 50.6043 908.129 110.731 908.129ZM1114.06 910.947V1121.07H1100.55V910.947H1114.06ZM958.104 910.947V1108.5H1070.52V1121.07H944.666V910.947H958.104ZM908.958 910.947V923.513H799.072V999.825H890.068V1012.39H799.072V1108.5H914.564V1121.07H785.558V910.947H908.958ZM1224.18 903.94L1312.72 1120.99H1298.97L1270.56 1051.92H1177.49L1149.16 1120.99H1135.41L1224.18 903.94ZM465.038 910.871C482.162 910.871 498.979 911.175 513.338 921.457C528.543 932.043 534.686 948.798 534.686 966.619C534.686 1003.1 509.115 1022.06 474.022 1021.53L543.44 1120.99H528.005L458.895 1021.53H427.872V1120.99H414.357V910.871H465.038ZM293.336 903.94L381.798 1120.99H368.052L339.717 1051.92H246.725L218.313 1120.99H204.567L293.336 903.94ZM1224.26 937.983L1182.64 1039.43H1265.49L1224.26 937.983ZM293.413 937.983L251.793 1039.43H334.649L293.413 937.983ZM498.825 928.235C487.614 922.98 473.254 923.513 460.891 923.513H427.872V1009.04H469.338C482.546 1009.04 495.754 1008.51 506.427 999.291C516.564 991.219 521.324 978.728 521.324 966.162C521.324 950.55 514.029 934.937 498.825 928.235ZM1107.31 875C1115.37 875 1121.9 881.474 1121.9 889.47C1121.9 897.467 1115.37 903.94 1107.31 903.94C1099.24 903.94 1092.72 897.467 1092.72 889.47C1092.72 881.474 1099.24 875 1107.31 875Z" fill="#AF1B3F"/>
</svg>
